<?xml version="1.0" standalone="no"?><!DOCTYPE svg PUBLIC "-//W3C//DTD SVG 1.1//EN" "http://www.w3.org/Graphics/SVG/1.1/DTD/svg11.dtd"><svg t="1652430363355" class="icon" viewBox="0 0 1024 1024" version="1.1" xmlns="http://www.w3.org/2000/svg" p-id="1472" xmlns:xlink="http://www.w3.org/1999/xlink" width="256" height="256"><defs><style type="text/css">@font-face { font-family: feedback-iconfont; src: url("//at.alicdn.com/t/font_1031158_u69w8yhxdu.woff2?t=1630033759944") format("woff2"), url("//at.alicdn.com/t/font_1031158_u69w8yhxdu.woff?t=1630033759944") format("woff"), url("//at.alicdn.com/t/font_1031158_u69w8yhxdu.ttf?t=1630033759944") format("truetype"); }
</style></defs><path d="M594.248205 0.105026a36.404513 36.404513 0 0 1 37.192205 47.957333 270.808615 270.808615 0 0 0 80.187077 291.682462l1.798564 1.522871 1.063385 0.87959 0.275692-0.28882a188.652308 188.652308 0 0 0 52.512821-127.750565v-3.242666q0-3.767795-0.144411-7.509334l-0.105025-2.297435v-0.682667a36.365128 36.365128 0 0 1 60.179692-28.409436 484.273231 484.273231 0 1 1-723.364102 103.266462 36.365128 36.365128 0 0 1 66.113641 12.274871 237.226667 237.226667 0 0 0 92.343794 142.401641l1.417847 1.024 0.643282 0.459488-0.065641-0.341334a366.775795 366.775795 0 0 1-6.22277-63.868718v-3.702154A364.163282 364.163282 0 0 1 594.156308 0.105026z m-45.541743 81.066666l-1.811693 0.472616a292.128821 292.128821 0 0 0-189.505641 403.639795 36.391385 36.391385 0 0 1-43.323077 50.136615 309.891282 309.891282 0 0 1-182.639589-146.077539l-1.168411-2.113641-1.470359-2.717538-0.538256 1.312821a412.041846 412.041846 0 0 0-29.236513 148.847589v4.148513a411.477333 411.477333 0 1 0 733.866667-256.275692l-1.732923-2.166154-0.275693-0.328205-0.446359 1.627897a261.77641 261.77641 0 0 1-88.365948 133.632l-1.312821 1.037128-1.890461 1.483488a36.338872 36.338872 0 0 1-42.601026 1.470359 343.683282 343.683282 0 0 1-147.862974-336.082052l0.315077-2.061128z" fill="#115e59" p-id="1473"></path><path d="M766.595282 559.300923a36.378256 36.378256 0 0 1 71.811282 11.618462 328.822154 328.822154 0 0 1-241.558974 268.038564 36.404513 36.404513 0 0 1-18.313846-70.472205 256 256 0 0 0 187.431384-205.574565l0.577641-3.610256z" fill="#2dd4bf" p-id="1474"></path></svg>
